<svg width="24" height="24" viewBox="0 0 24 24" fill="none" xmlns="http://www.w3.org/2000/svg">
<path d="M1.99801 23C1.99801 23.2652 1.89265 23.5196 1.70511 23.7071C1.51758 23.8946 1.26322 24 0.998007 24C0.73279 24 0.478437 23.8946 0.290901 23.7071C0.103365 23.5196 -0.00199324 23.2652 -0.00199327 23L-0.00199519 0.999987C-0.00199521 0.73477 0.103363 0.480416 0.290899 0.292879C0.478435 0.105343 0.732788 -1.32246e-05 0.998005 -1.32478e-05C1.26322 -1.3271e-05 1.51758 0.105343 1.70511 0.292879C1.89265 0.480415 1.998 0.73477 1.998 0.999987L1.99801 23ZM24.001 21.496C24.001 23.498 21.765 24.688 20.104 23.569L6.10101 14.137C5.76267 13.9089 5.4853 13.6014 5.29313 13.2415C5.10095 12.8815 4.99981 12.48 4.99853 12.0719C4.99725 11.6639 5.09586 11.2617 5.28577 10.9006C5.47568 10.5394 5.75111 10.2302 6.08801 9.99999L20.091 0.439986C21.751 -0.692014 24.001 0.495985 24.001 2.50599L24.001 21.494L24.001 21.496Z" fill="black"/>
</svg>
