<svg width="24" height="25" viewBox="0 0 24 25" fill="none" xmlns="http://www.w3.org/2000/svg">
<path fill-rule="evenodd" clip-rule="evenodd" d="M20.479 8.07827L15.093 3.62502C13.2787 2.12499 10.7213 2.12499 8.90703 3.62502L3.52097 8.07827C2.55059 8.88059 2 10.0971 2 11.3663V18.3109C2 20.566 3.73415 22.5 6 22.5H8C9.10457 22.5 10 21.6046 10 20.5V17.2478C10 15.9803 10.9521 15.0587 12 15.0587C13.0479 15.0587 14 15.9803 14 17.2478V20.5C14 21.6046 14.8954 22.5 16 22.5H18C20.2659 22.5 22 20.566 22 18.3109V11.3663C22 10.0971 21.4494 8.88059 20.479 8.07827Z" fill="#F85D2C"/>
</svg>
