<svg width="24" height="25" viewBox="0 0 24 25" fill="none" xmlns="http://www.w3.org/2000/svg">
<path d="M12.5 15.5C13.2 15.5 13.7917 15.2583 14.275 14.775C14.7583 14.2917 15 13.7 15 13V7.5H18V5.5H14V11C13.7833 10.8333 13.55 10.7083 13.3 10.625C13.05 10.5417 12.7833 10.5 12.5 10.5C11.8 10.5 11.2083 10.7417 10.725 11.225C10.2417 11.7083 10 12.3 10 13C10 13.7 10.2417 14.2917 10.725 14.775C11.2083 15.2583 11.8 15.5 12.5 15.5ZM8 18.5C7.45 18.5 6.979 18.304 6.587 17.912C6.195 17.52 5.99934 17.0493 6 16.5V4.5C6 3.95 6.196 3.479 6.588 3.087C6.98 2.695 7.45067 2.49934 8 2.5H20C20.55 2.5 21.021 2.696 21.413 3.088C21.805 3.48 22.0007 3.95067 22 4.5V16.5C22 17.05 21.804 17.521 21.412 17.913C21.02 18.305 20.5493 18.5007 20 18.5H8ZM4 22.5C3.45 22.5 2.979 22.304 2.587 21.912C2.195 21.52 1.99934 21.0493 2 20.5V6.5H4V20.5H18V22.5H4Z" fill="#8A8A8A"/>
</svg>
