<svg width="20" height="14" viewBox="0 0 20 14" fill="none" xmlns="http://www.w3.org/2000/svg">
<path d="M11.3806 0H1.38062C0.830615 0 0.380615 0.45 0.380615 1C0.380615 1.55 0.830615 2 1.38062 2H11.3806C11.9306 2 12.3806 1.55 12.3806 1C12.3806 0.45 11.9306 0 11.3806 0ZM11.3806 4H1.38062C0.830615 4 0.380615 4.45 0.380615 5C0.380615 5.55 0.830615 6 1.38062 6H11.3806C11.9306 6 12.3806 5.55 12.3806 5C12.3806 4.45 11.9306 4 11.3806 4ZM1.38062 10H7.38062C7.93062 10 8.38062 9.55 8.38062 9C8.38062 8.45 7.93062 8 7.38062 8H1.38062C0.830615 8 0.380615 8.45 0.380615 9C0.380615 9.55 0.830615 10 1.38062 10ZM16.3806 0C15.2806 0 14.3806 0.9 14.3806 2V8.18C14.0706 8.07 13.7306 8 13.3806 8C11.5406 8 10.1006 9.64 10.4306 11.54C10.6406 12.75 11.6306 13.74 12.8406 13.95C14.7406 14.28 16.3806 12.84 16.3806 11V2H18.3806C18.9306 2 19.3806 1.55 19.3806 1C19.3806 0.45 18.9306 0 18.3806 0H16.3806Z" fill="black"/>
</svg>
