<svg width="25" height="24" viewBox="0 0 25 24" fill="none" xmlns="http://www.w3.org/2000/svg">
<path d="M12.3897 13.1067C12.7195 13.1067 13.0253 13.0162 13.3069 12.8352C13.5925 12.6542 13.8218 12.4088 13.9948 12.099C14.1678 11.7893 14.2542 11.4413 14.2542 11.0551C14.2542 10.6729 14.1678 10.331 13.9948 10.0293C13.8218 9.72759 13.5925 9.49024 13.3069 9.31726C13.0253 9.14026 12.7195 9.05176 12.3897 9.05176C12.0558 9.05176 11.746 9.14026 11.4604 9.31726C11.1788 9.49427 10.9515 9.73563 10.7785 10.0414C10.6096 10.3471 10.5251 10.689 10.5251 11.0672C10.5251 11.4493 10.6096 11.7953 10.7785 12.1051C10.9515 12.4108 11.1788 12.6542 11.4604 12.8352C11.746 13.0162 12.0558 13.1067 12.3897 13.1067ZM9.34241 17.3065H15.4249C15.6783 17.3065 15.8795 17.2482 16.0283 17.1315C16.1771 17.0189 16.2516 16.862 16.2516 16.6609C16.2516 16.3592 16.161 16.0434 15.98 15.7135C15.803 15.3836 15.5456 15.0759 15.2076 14.7903C14.8738 14.5006 14.4675 14.2673 13.9887 14.0903C13.514 13.9093 12.981 13.8188 12.3897 13.8188C11.7943 13.8188 11.2573 13.9093 10.7785 14.0903C10.3039 14.2673 9.89756 14.5006 9.55964 14.7903C9.22575 15.0759 8.96829 15.3836 8.78726 15.7135C8.61026 16.0434 8.52176 16.3592 8.52176 16.6609C8.52176 16.862 8.59417 17.0189 8.73899 17.1315C8.88381 17.2482 9.08495 17.3065 9.34241 17.3065Z" fill="black"/>
<path d="M3.86938 17.1616C4.00214 17.1616 4.11478 17.1153 4.2073 17.0228C4.30385 16.9303 4.35212 16.8156 4.35212 16.6788C4.35212 15.7174 4.48688 14.8022 4.75641 13.9333C5.02594 13.0644 5.40609 12.2679 5.89687 11.5437C6.39168 10.8196 6.97297 10.1901 7.64076 9.65505C8.30854 9.12001 9.0427 8.70567 9.84324 8.412C10.6478 8.11834 11.4926 7.97151 12.3776 7.97151C13.2626 7.97151 14.1054 8.11834 14.9059 8.412C15.7065 8.70567 16.4406 9.12001 17.1084 9.65505C17.7802 10.1901 18.3615 10.8196 18.8523 11.5437C19.3471 12.2679 19.7293 13.0644 19.9988 13.9333C20.2723 14.8022 20.4091 15.7174 20.4091 16.6788C20.4091 16.8156 20.4554 16.9303 20.5479 17.0228C20.6404 17.1153 20.7531 17.1616 20.8858 17.1616C21.0226 17.1616 21.1392 17.1153 21.2358 17.0228C21.3323 16.9303 21.3806 16.8156 21.3806 16.6788C21.3806 15.6128 21.2277 14.5971 20.922 13.6316C20.6203 12.6661 20.1919 11.7811 19.6367 10.9765C19.0856 10.168 18.4339 9.46597 17.6817 8.8706C16.9334 8.27523 16.1087 7.81462 15.2076 7.48877C14.3106 7.16292 13.3672 7 12.3776 7C11.384 7 10.4386 7.16292 9.54153 7.48877C8.64444 7.81462 7.81977 8.27523 7.06751 8.8706C6.31927 9.46597 5.66959 10.168 5.11846 10.9765C4.56734 11.7811 4.13891 12.6661 3.83318 13.6316C3.53147 14.5971 3.38062 15.6128 3.38062 16.6788C3.38062 16.8156 3.42688 16.9303 3.5194 17.0228C3.61595 17.1153 3.73261 17.1616 3.86938 17.1616ZM6.66322 17.1616C6.79597 17.1616 6.91263 17.1153 7.0132 17.0228C7.11377 16.9303 7.16405 16.8176 7.16405 16.6849C7.16405 16.0091 7.27066 15.3654 7.48387 14.7539C7.7011 14.1425 8.00683 13.5893 8.40106 13.0945C8.79932 12.5957 9.26597 12.1793 9.801 11.8455C9.75272 11.6644 9.72255 11.4874 9.71048 11.3144C9.70244 11.1374 9.71048 10.9584 9.73462 10.7774C9.02259 11.1314 8.39905 11.6101 7.86402 12.2135C7.33301 12.8129 6.91866 13.4968 6.62098 14.2652C6.32731 15.0295 6.18048 15.8361 6.18048 16.6849C6.18048 16.8176 6.22674 16.9303 6.31927 17.0228C6.41581 17.1153 6.53046 17.1616 6.66322 17.1616ZM18.098 17.1616C18.2308 17.1616 18.3454 17.1153 18.442 17.0228C18.5385 16.9303 18.5868 16.8176 18.5868 16.6849C18.5868 15.8401 18.44 15.0355 18.1463 14.2712C17.8526 13.5069 17.4403 12.825 16.9093 12.2256C16.3823 11.6262 15.7648 11.1475 15.0568 10.7895C15.0729 10.9625 15.0749 11.1395 15.0628 11.3205C15.0507 11.4975 15.0226 11.6765 14.9783 11.8575C15.5134 12.1874 15.976 12.6017 16.3662 13.1006C16.7604 13.5994 17.0642 14.1545 17.2774 14.766C17.4946 15.3735 17.6032 16.0131 17.6032 16.6849C17.6032 16.8176 17.6515 16.9303 17.748 17.0228C17.8486 17.1153 17.9653 17.1616 18.098 17.1616Z" fill="black"/>
</svg>
