<svg width="24" height="24" viewBox="0 0 24 24" fill="none" xmlns="http://www.w3.org/2000/svg">
<path d="M11 5H10.8397C9.67204 5 8.56264 5.51025 7.80271 6.39683L7.6798 6.54024C7.23956 7.05385 6.63866 7.40359 5.97463 7.53271L5.42739 7.63912C4.01772 7.91322 3 9.14789 3 10.584V13.416C3 14.8521 4.01772 16.0868 5.42739 16.3609L5.97463 16.4673C6.63866 16.5964 7.23956 16.9462 7.6798 17.4598L7.80271 17.6032C8.56264 18.4897 9.67204 19 10.8397 19H11C12.1046 19 13 18.1046 13 17V7C13 5.89543 12.1046 5 11 5Z" stroke="black" stroke-width="2"/>
<path d="M19.7943 16.5C20.5842 15.1318 21 13.5798 21 12C21 10.4202 20.5842 8.86817 19.7943 7.5" stroke="black" stroke-width="2" stroke-linecap="round"/>
<path d="M16.899 14.8282C17.3955 13.9683 17.6569 12.9928 17.6569 11.9998C17.6569 11.0068 17.3955 10.0313 16.899 9.17139" stroke="black" stroke-width="2" stroke-linecap="round"/>
</svg>
