<svg width="20" height="20" viewBox="0 0 20 20" fill="none" xmlns="http://www.w3.org/2000/svg">
<path fill-rule="evenodd" clip-rule="evenodd" d="M6.55284 1.15485e-10C5.93598 1.15485e-10 5.23841 0.0650155 4.57209 0.292119C0.554939 1.60375 -0.736586 5.89388 0.398766 9.42986L0.403537 9.44471L0.408768 9.45941C1.03435 11.2173 2.04226 12.8126 3.35336 14.1248L3.36091 14.1323L3.36862 14.1397C5.23782 15.9322 7.27254 17.4952 9.47564 18.8514L9.99341 19.1702L10.5147 18.8572C12.7226 17.5314 14.7964 15.9253 16.6432 14.1473L16.649 14.1417L16.6547 14.1361C17.9771 12.8214 18.9851 11.2143 19.6015 9.45475L19.6066 9.44004L19.6113 9.42519C20.7251 5.89691 19.4401 1.60164 15.4507 0.309357C14.7976 0.0920901 14.1236 1.15485e-10 13.4648 1.15485e-10C11.9828 -9.77482e-06 10.8858 0.620514 10.0004 1.25297C9.1219 0.625326 8.01757 1.15485e-10 6.55284 1.15485e-10Z" fill="white"/>
</svg>
