<svg width="24" height="24" viewBox="0 0 24 24" fill="none" xmlns="http://www.w3.org/2000/svg">
<path d="M15 5H14.8397C13.672 5 12.5626 5.51025 11.8027 6.39683L11.6798 6.54024C11.2396 7.05385 10.6387 7.40359 9.97463 7.53271L9.42739 7.63912C8.01772 7.91322 7 9.14789 7 10.584V13.416C7 14.8521 8.01772 16.0868 9.42739 16.3609L9.97463 16.4673C10.6387 16.5964 11.2396 16.9462 11.6798 17.4598L11.8027 17.6032C12.5626 18.4897 13.672 19 14.8397 19H15C16.1046 19 17 18.1046 17 17V7C17 5.89543 16.1046 5 15 5Z" stroke="black" stroke-width="2"/>
</svg>
