<svg width="24" height="24" viewBox="0 0 24 24" fill="none" xmlns="http://www.w3.org/2000/svg">
<path d="M22.002 1.00001C22.002 0.734798 22.1074 0.480445 22.2949 0.292908C22.4825 0.105372 22.7368 1.48553e-05 23.002 1.48553e-05C23.2672 1.48553e-05 23.5216 0.105372 23.7091 0.292908C23.8967 0.480445 24.002 0.734798 24.002 1.00001V23C24.002 23.2652 23.8967 23.5196 23.7091 23.7071C23.5216 23.8947 23.2672 24 23.002 24C22.7368 24 22.4825 23.8947 22.2949 23.7071C22.1074 23.5196 22.002 23.2652 22.002 23V1.00001ZM-0.000976562 2.50401C-0.000976562 0.502015 2.23502 -0.687985 3.89602 0.431015L17.899 9.86302C18.2374 10.0911 18.5147 10.3986 18.7069 10.7585C18.8991 11.1185 19.0002 11.52 19.0015 11.9281C19.0028 12.3361 18.9042 12.7383 18.7143 13.0994C18.5243 13.4606 18.2489 13.7698 17.912 14L3.90902 23.56C2.24902 24.692 -0.000976562 23.504 -0.000976562 21.494V2.50601V2.50401Z" fill="black"/>
</svg>
