<svg width="24" height="24" viewBox="0 0 24 24" fill="none" xmlns="http://www.w3.org/2000/svg">
<rect width="24" height="24" rx="12" fill="#040404" fill-opacity="0.1"/>
<path d="M15.5757 8.52287C15.7319 8.67908 15.7319 8.93235 15.5757 9.08856L13.0886 11.5757C12.8542 11.8101 12.8542 12.19 13.0886 12.4243L15.5757 14.9114C15.7319 15.0677 15.7319 15.3209 15.5757 15.4771L15.4771 15.5757C15.3209 15.7319 15.0677 15.7319 14.9114 15.5757L12.4243 13.0886C12.1899 12.8542 11.8101 12.8542 11.5757 13.0886L9.08856 15.5757C8.93235 15.7319 8.67908 15.7319 8.52287 15.5757L8.42426 15.4771C8.26805 15.3209 8.26805 15.0677 8.42426 14.9114L10.9114 12.4243C11.1458 12.1899 11.1458 11.8101 10.9114 11.5757L8.42426 9.08856C8.26805 8.93235 8.26805 8.67908 8.42426 8.52287L8.52287 8.42426C8.67908 8.26805 8.93235 8.26805 9.08856 8.42426L11.5757 10.9114C11.8101 11.1458 12.19 11.1458 12.4243 10.9114L14.9114 8.42426C15.0677 8.26805 15.3209 8.26805 15.4771 8.42426L15.5757 8.52287Z" fill="#878787" stroke="#878787" stroke-width="0.2"/>
</svg>
